<?xml version="1.0" encoding="utf-8"?>
<!-- Generator: Adobe Illustrator 24.0.2, SVG Export Plug-In . SVG Version: 6.00 Build 0)  -->
<svg version="1.1" id="Warstwa_1" xmlns="http://www.w3.org/2000/svg" xmlns:xlink="http://www.w3.org/1999/xlink" x="0px" y="0px"
     viewBox="0 0 27 27" style="enable-background:new 0 0 27 27;" xml:space="preserve">
<style type="text/css">
	.st0{fill:none;}
	.st1{fill:#02AC46;}
	.st2{fill:none;stroke:#02AC46;stroke-width:0.55;stroke-linecap:round;stroke-linejoin:round;stroke-miterlimit:10;}
</style>
    <rect id="backgroundrect" class="st0" width="27" height="27"/>
    <g>
	<title>Layer 1</title>
        <g id="svg_1">
		<path id="path156_2_" class="st1" d="M15.6,3.1c0.5,0.5,0.6,1.3,0.5,2c-0.1,0.8-0.6,1.5-1.1,2.1c-0.4,0.5-0.9,0.9-1.4,1.3
			c-0.6,0.5-1.1,1-1.5,1.6c-0.3,0.5-0.4,1.2-0.2,1.7c0.3,1,1.1,1.7,1.6,2.6c-0.5-0.4-0.9-0.9-1.4-1.3c-0.5-0.5-0.9-1-1.2-1.6
			c-0.2-0.4-0.3-0.9-0.1-1.4C11,9.7,11.3,9.4,11.7,9c0.9-0.9,2-1.6,2.9-2.5c0.5-0.5,0.9-1.1,1-1.8C15.8,4.2,15.7,3.6,15.6,3.1"/>
            <path id="path158_2_" class="st1" d="M15.6,3.1c0.5,0.5,0.6,1.3,0.5,2c-0.1,0.8-0.6,1.5-1.1,2.1c-0.4,0.5-0.9,0.9-1.4,1.3
			c-0.6,0.5-1.1,1-1.5,1.6c-0.3,0.5-0.4,1.2-0.2,1.7c0.3,1,1.1,1.7,1.6,2.6c-0.5-0.4-0.9-0.9-1.4-1.3c-0.5-0.5-0.9-1-1.2-1.6
			c-0.2-0.4-0.3-0.9-0.1-1.4C11,9.7,11.3,9.4,11.7,9c0.9-0.9,2-1.6,2.9-2.5c0.5-0.5,0.9-1.1,1-1.8C15.8,4.2,15.7,3.6,15.6,3.1z"/>
            <path id="path160_2_" class="st1" d="M14.8,8.9c1-0.7,2.1-1.2,3.3-1.5c-0.9,0.6-1.9,1.1-2.7,1.9c-0.3,0.3-0.6,0.6-0.7,1
			c-0.1,0.3-0.1,0.6,0.1,0.9c0.2,0.5,0.6,0.9,0.8,1.3c0.2,0.4,0.3,0.9,0.1,1.3c-0.3,0.6-0.8,1-1.3,1.4c-0.1,0-0.1,0.1-0.2,0.1
			c0.4-0.3,0.6-0.8,0.6-1.3c0-0.4-0.2-0.7-0.5-1c-0.5-0.6-0.9-1.4-0.8-2.2C13.6,10,14.2,9.4,14.8,8.9"/>
            <path id="path162_2_" class="st1" d="M14.8,8.9c1-0.7,2.1-1.2,3.3-1.5c-0.9,0.6-1.9,1.1-2.7,1.9c-0.3,0.3-0.6,0.6-0.7,1
			c-0.1,0.3-0.1,0.6,0.1,0.9c0.2,0.5,0.6,0.9,0.8,1.3c0.2,0.4,0.3,0.9,0.1,1.3c-0.3,0.6-0.8,1-1.3,1.4c-0.1,0-0.1,0.1-0.2,0.1
			c0.4-0.3,0.6-0.8,0.6-1.3c0-0.4-0.2-0.7-0.5-1c-0.5-0.6-0.9-1.4-0.8-2.2C13.6,10,14.2,9.4,14.8,8.9L14.8,8.9z"/>
            <path id="path164_2_" class="st1" d="M18.3,14.7c0.2-0.3,0.5-0.3,0.9-0.4c0.5-0.1,1.1,0.1,1.5,0.4c0.3,0.3,0.5,0.8,0.5,1.2
			c-0.1,0.5-0.4,1-0.8,1.3c-0.7,0.6-1.6,0.9-2.5,1.1c0.1-0.1,0.1-0.1,0.2-0.1c0.7-0.4,1.3-0.8,1.8-1.4c0.3-0.4,0.5-0.8,0.4-1.3
			c-0.1-0.6-0.6-1-1.2-1C18.8,14.6,18.6,14.7,18.3,14.7"/>
            <path id="path166_2_" class="st1" d="M18.3,14.7c0.2-0.3,0.5-0.3,0.9-0.4c0.5-0.1,1.1,0.1,1.5,0.4c0.3,0.3,0.5,0.8,0.5,1.2
			c-0.1,0.5-0.4,1-0.8,1.3c-0.7,0.6-1.6,0.9-2.5,1.1c0.1-0.1,0.1-0.1,0.2-0.1c0.7-0.4,1.3-0.8,1.8-1.4c0.3-0.4,0.5-0.8,0.4-1.3
			c-0.1-0.6-0.6-1-1.2-1C18.8,14.6,18.6,14.7,18.3,14.7L18.3,14.7z"/>
            <path id="path168_2_" class="st1" d="M8.2,15.2c0.9-0.4,1.9-0.7,3-0.6c-0.6,0.2-1.2,0.3-1.8,0.6c-0.1,0.1-0.3,0.1-0.4,0.3
			c0,0.1,0.1,0.2,0.2,0.2c0.3,0.1,0.7,0.2,1.1,0.2c1.3,0.1,2.6,0,3.9,0c1.3-0.1,2.5-0.3,3.8-0.5c-0.3,0.1-0.6,0.3-0.8,0.4
			c-0.1,0.1-0.3,0.1-0.4,0.2c-1.5,0.3-3.1,0.5-4.7,0.5c-0.6,0-1.2,0-1.8,0c-0.7,0-1.4-0.1-2-0.3c-0.2-0.1-0.4-0.1-0.5-0.3
			c-0.1-0.1-0.1-0.2,0-0.3C7.7,15.4,8,15.3,8.2,15.2"/>
            <path id="path170_2_" class="st1" d="M8.2,15.2c0.9-0.4,1.9-0.7,3-0.6c-0.6,0.2-1.2,0.3-1.8,0.6c-0.1,0.1-0.3,0.1-0.4,0.3
			c0,0.1,0.1,0.2,0.2,0.2c0.3,0.1,0.7,0.2,1.1,0.2c1.3,0.1,2.6,0,3.9,0c1.3-0.1,2.5-0.3,3.8-0.5c-0.3,0.1-0.6,0.3-0.8,0.4
			c-0.1,0.1-0.3,0.1-0.4,0.2c-1.5,0.3-3.1,0.5-4.7,0.5c-0.6,0-1.2,0-1.8,0c-0.7,0-1.4-0.1-2-0.3c-0.2-0.1-0.4-0.1-0.5-0.3
			c-0.1-0.1-0.1-0.2,0-0.3C7.7,15.4,8,15.3,8.2,15.2L8.2,15.2z"/>
            <path id="path172_2_" class="st1" d="M9.4,17.3c0.3-0.2,0.6-0.3,0.9-0.4C10.1,17,10,17.1,10,17.3c0,0.1,0.1,0.2,0.2,0.2
			c0.2,0.1,0.4,0.1,0.5,0.1c1,0.1,2,0.2,2.9,0.1c0.9,0,1.8-0.2,2.7-0.3c0.2,0.2,0.5,0.4,0.8,0.5c-1.1,0.3-2.2,0.5-3.3,0.6
			c-1,0.1-2.1,0.1-3.1-0.1c-0.4-0.1-0.8-0.2-1.2-0.4c-0.2-0.1-0.3-0.2-0.4-0.4C9.1,17.6,9.2,17.4,9.4,17.3"/>
            <path id="path174_2_" class="st1" d="M9.4,17.3c0.3-0.2,0.6-0.3,0.9-0.4C10.1,17,10,17.1,10,17.3c0,0.1,0.1,0.2,0.2,0.2
			c0.2,0.1,0.4,0.1,0.5,0.1c1,0.1,2,0.2,2.9,0.1c0.9,0,1.8-0.2,2.7-0.3c0.2,0.2,0.5,0.4,0.8,0.5c-1.1,0.3-2.2,0.5-3.3,0.6
			c-1,0.1-2.1,0.1-3.1-0.1c-0.4-0.1-0.8-0.2-1.2-0.4c-0.2-0.1-0.3-0.2-0.4-0.4C9.1,17.6,9.2,17.4,9.4,17.3L9.4,17.3z"/>
            <path id="path176_2_" class="st1" d="M9.9,19.5c0.2-0.2,0.5-0.3,0.8-0.4c-0.1,0.1-0.3,0.2-0.2,0.3c0.1,0.2,0.4,0.2,0.6,0.2
			c0.9,0.1,1.7,0.2,2.6,0.1c0.6,0,1.3-0.2,1.9-0.3c0.4,0.2,0.7,0.4,1.1,0.6c-0.6,0.3-1.2,0.4-1.9,0.6c-1.1,0.2-2.2,0.2-3.3,0
			c-0.5-0.1-1-0.2-1.4-0.4c-0.2-0.1-0.3-0.2-0.4-0.4C9.7,19.8,9.8,19.6,9.9,19.5"/>
            <path id="path178_2_" class="st1" d="M9.9,19.5c0.2-0.2,0.5-0.3,0.8-0.4c-0.1,0.1-0.3,0.2-0.2,0.3c0.1,0.2,0.4,0.2,0.6,0.2
			c0.9,0.1,1.7,0.2,2.6,0.1c0.6,0,1.3-0.2,1.9-0.3c0.4,0.2,0.7,0.4,1.1,0.6c-0.6,0.3-1.2,0.4-1.9,0.6c-1.1,0.2-2.2,0.2-3.3,0
			c-0.5-0.1-1-0.2-1.4-0.4c-0.2-0.1-0.3-0.2-0.4-0.4C9.7,19.8,9.8,19.6,9.9,19.5L9.9,19.5z"/>
            <path id="path180_2_" class="st1" d="M7.1,21c0.5-0.2,0.9-0.3,1.4-0.3c0.2,0,0.4,0,0.6,0.1c-0.6,0-1.2,0.2-1.7,0.4
			c-0.1,0.1-0.2,0.1-0.3,0.3c0,0.2,0.2,0.2,0.3,0.3C8.2,22,9,22.1,9.7,22.2c2.3,0.2,4.6,0.1,6.9-0.1c0.9-0.1,1.7-0.2,2.6-0.4
			c0.3-0.1,0.6-0.2,0.7-0.4c0.1-0.1,0-0.3-0.1-0.4c0.2,0.1,0.4,0.2,0.4,0.4c-0.1,0.2-0.3,0.4-0.5,0.5c-0.6,0.3-1.4,0.5-2.1,0.6
			c-2.1,0.4-4.2,0.5-6.3,0.4c-1.6-0.1-3.2-0.2-4.7-0.5c-0.3-0.1-0.6-0.1-0.8-0.3c-0.1-0.2,0-0.4,0.1-0.5C6.3,21.3,6.7,21.1,7.1,21"
            />
            <path id="path182_2_" class="st1" d="M7.1,21c0.5-0.2,0.9-0.3,1.4-0.3c0.2,0,0.4,0,0.6,0.1c-0.6,0-1.2,0.2-1.7,0.4
			c-0.1,0.1-0.2,0.1-0.3,0.3c0,0.2,0.2,0.2,0.3,0.3C8.2,22,9,22.1,9.7,22.2c2.3,0.2,4.6,0.1,6.9-0.1c0.9-0.1,1.7-0.2,2.6-0.4
			c0.3-0.1,0.6-0.2,0.7-0.4c0.1-0.1,0-0.3-0.1-0.4c0.2,0.1,0.4,0.2,0.4,0.4c-0.1,0.2-0.3,0.4-0.5,0.5c-0.6,0.3-1.4,0.5-2.1,0.6
			c-2.1,0.4-4.2,0.5-6.3,0.4c-1.6-0.1-3.2-0.2-4.7-0.5c-0.3-0.1-0.6-0.1-0.8-0.3c-0.1-0.2,0-0.4,0.1-0.5C6.3,21.3,6.7,21.1,7.1,21
			L7.1,21z"/>
            <path id="path184_2_" class="st1" d="M19.7,22.7c0.5-0.2,1.1-0.4,1.4-0.8c-0.1,0.4-0.4,0.7-0.8,0.9c-0.7,0.4-1.5,0.5-2.3,0.7
			c-1.7,0.3-3.4,0.3-5.1,0.3c-1.2,0-2.3-0.1-3.5-0.3c-0.3-0.1-0.6-0.1-0.8-0.3c1,0.2,2.1,0.2,3.1,0.3c1.7,0.1,3.4,0,5.1-0.2
			C17.8,23.2,18.8,23,19.7,22.7"/>
            <path id="path186_2_" class="st1" d="M19.7,22.7c0.5-0.2,1.1-0.4,1.4-0.8c-0.1,0.4-0.4,0.7-0.8,0.9c-0.7,0.4-1.5,0.5-2.3,0.7
			c-1.7,0.3-3.4,0.3-5.1,0.3c-1.2,0-2.3-0.1-3.5-0.3c-0.3-0.1-0.6-0.1-0.8-0.3c1,0.2,2.1,0.2,3.1,0.3c1.7,0.1,3.4,0,5.1-0.2
			C17.8,23.2,18.8,23,19.7,22.7L19.7,22.7z"/>
	</g>
        <path id="svg_2" class="st2" d="M26.7,22.5c0,2.3-1.9,4.2-4.2,4.2h-18c-2.3,0-4.2-1.9-4.2-4.2v-18c0-2.3,1.9-4.2,4.2-4.2h18
		c2.3,0,4.2,1.9,4.2,4.2C26.7,4.5,26.7,22.5,26.7,22.5z"/>
</g>
</svg>
