<svg id="svg" version="1.1" xmlns="http://www.w3.org/2000/svg" xmlns:xlink="http://www.w3.org/1999/xlink" width="400" height="669.8224852071006" viewBox="0, 0, 400,669.8224852071006"><g id="svgg"><path id="path0" d="M1.200 0.600 C 1.200 0.930,0.930 1.200,0.600 1.200 C 0.067 1.200,0.000 38.533,0.000 334.800 L 0.000 668.400 1.800 668.400 C 3.133 668.400,3.600 668.556,3.600 669.000 C 3.600 669.533,25.822 669.600,201.200 669.600 C 376.578 669.600,398.800 669.533,398.800 669.000 C 398.800 668.670,399.070 668.400,399.400 668.400 C 399.933 668.400,400.000 631.067,400.000 334.800 C 400.000 38.533,399.933 1.200,399.400 1.200 C 399.070 1.200,398.800 0.930,398.800 0.600 C 398.800 0.067,376.444 0.000,200.000 0.000 C 23.556 0.000,1.200 0.067,1.200 0.600 M382.400 69.800 L 382.400 122.000 200.000 122.000 L 17.600 122.000 17.600 69.800 L 17.600 17.600 200.000 17.600 L 382.400 17.600 382.400 69.800 M119.600 70.973 C 119.600 71.738,119.364 71.974,118.500 72.073 L 117.400 72.200 117.291 79.300 L 117.182 86.400 118.391 86.400 C 119.468 86.400,119.600 86.531,119.600 87.600 L 119.600 88.800 161.000 88.800 L 202.400 88.800 202.400 87.600 C 202.400 86.533,202.533 86.400,203.600 86.400 C 204.667 86.400,204.800 86.267,204.800 85.200 C 204.800 84.131,204.932 84.000,206.013 84.000 L 207.225 84.000 207.113 79.300 L 207.000 74.600 205.924 74.476 C 205.093 74.380,204.820 74.107,204.724 73.276 C 204.627 72.438,204.357 72.172,203.500 72.073 C 202.636 71.974,202.400 71.738,202.400 70.973 L 202.400 70.000 161.000 70.000 L 119.600 70.000 119.600 70.973 M235.600 70.973 C 235.600 71.738,235.364 71.974,234.500 72.073 L 233.400 72.200 233.291 79.300 L 233.182 86.400 234.391 86.400 C 235.468 86.400,235.600 86.531,235.600 87.600 L 235.600 88.800 258.000 88.800 L 280.400 88.800 280.400 87.600 C 280.400 86.531,280.532 86.400,281.609 86.400 L 282.818 86.400 282.709 79.300 L 282.600 72.200 281.500 72.073 C 280.636 71.974,280.400 71.738,280.400 70.973 L 280.400 70.000 258.000 70.000 L 235.600 70.000 235.600 70.973 M382.400 334.800 L 382.400 528.800 200.000 528.800 L 17.600 528.800 17.600 334.800 L 17.600 140.800 200.000 140.800 L 382.400 140.800 382.400 334.800 M102.800 262.800 L 102.800 264.000 98.200 264.000 L 93.600 264.000 93.600 264.980 C 93.600 265.893,93.442 265.968,91.300 266.080 C 89.133 266.193,88.993 266.263,88.875 267.281 C 88.758 268.297,88.615 268.369,86.475 268.481 C 84.335 268.593,84.193 268.664,84.075 269.681 C 83.958 270.697,83.815 270.769,81.675 270.881 C 79.538 270.993,79.392 271.065,79.276 272.076 C 79.180 272.907,78.907 273.180,78.076 273.276 C 77.244 273.372,76.972 273.644,76.876 274.476 C 76.780 275.307,76.507 275.580,75.676 275.676 C 74.838 275.773,74.572 276.043,74.473 276.900 C 74.375 277.753,74.135 278.000,73.405 278.000 C 72.684 278.000,72.402 278.281,72.200 279.200 C 71.996 280.130,71.719 280.400,70.968 280.400 C 70.159 280.400,70.000 280.597,70.000 281.600 C 70.000 282.667,69.867 282.800,68.800 282.800 C 67.733 282.800,67.600 282.933,67.600 284.000 C 67.600 285.067,67.467 285.200,66.400 285.200 C 65.333 285.200,65.200 285.333,65.200 286.400 C 65.200 287.467,65.067 287.600,64.000 287.600 C 62.933 287.600,62.800 287.733,62.800 288.800 C 62.800 289.867,62.667 290.000,61.600 290.000 C 60.414 290.000,60.400 290.025,60.400 292.173 C 60.400 294.247,60.350 294.353,59.300 294.473 C 58.259 294.593,58.194 294.723,58.080 296.900 C 57.963 299.153,57.936 299.200,56.780 299.200 C 55.604 299.200,55.600 299.209,55.600 301.600 L 55.600 304.000 54.400 304.000 L 53.200 304.000 53.200 307.600 L 53.200 311.200 52.000 311.200 L 50.800 311.200 50.800 316.973 L 50.800 322.747 49.700 322.873 L 48.600 323.000 48.600 331.200 L 48.600 339.400 49.700 339.527 L 50.800 339.653 50.800 345.427 L 50.800 351.200 52.000 351.200 L 53.200 351.200 53.200 354.800 L 53.200 358.400 54.400 358.400 L 55.600 358.400 55.600 360.800 L 55.600 363.200 56.800 363.200 L 58.000 363.200 58.000 365.600 L 58.000 368.000 59.200 368.000 L 60.400 368.000 60.400 370.400 C 60.400 372.788,60.406 372.800,61.573 372.800 C 62.556 372.800,62.767 372.979,62.873 373.900 C 62.973 374.764,63.236 375.027,64.100 375.127 C 64.964 375.226,65.200 375.462,65.200 376.227 C 65.200 377.041,65.395 377.200,66.400 377.200 C 67.467 377.200,67.600 377.333,67.600 378.400 C 67.600 379.467,67.733 379.600,68.800 379.600 C 69.867 379.600,70.000 379.733,70.000 380.800 C 70.000 381.803,70.159 382.000,70.968 382.000 C 71.719 382.000,71.996 382.270,72.200 383.200 C 72.404 384.130,72.681 384.400,73.432 384.400 C 74.241 384.400,74.400 384.597,74.400 385.600 C 74.400 386.667,74.533 386.800,75.600 386.800 C 76.667 386.800,76.800 386.933,76.800 388.000 C 76.800 389.067,76.933 389.200,78.000 389.200 C 79.067 389.200,79.200 389.333,79.200 390.400 L 79.200 391.600 81.600 391.600 L 84.000 391.600 84.000 392.800 L 84.000 394.000 86.400 394.000 L 88.800 394.000 88.800 395.200 L 88.800 396.400 91.200 396.400 L 93.600 396.400 93.600 397.600 L 93.600 398.800 98.173 398.800 L 102.747 398.800 102.873 399.900 L 103.000 401.000 119.500 401.104 L 136.000 401.209 136.000 400.004 L 136.000 398.800 140.800 398.800 L 145.600 398.800 145.600 397.600 L 145.600 396.400 148.000 396.400 L 150.400 396.400 150.400 395.200 L 150.400 394.000 152.800 394.000 L 155.200 394.000 155.200 392.800 C 155.200 391.612,155.222 391.600,157.400 391.600 C 159.578 391.600,159.600 391.588,159.600 390.400 C 159.600 389.333,159.733 389.200,160.800 389.200 C 161.867 389.200,162.000 389.067,162.000 388.000 C 162.000 386.933,162.133 386.800,163.200 386.800 C 164.267 386.800,164.400 386.667,164.400 385.600 L 164.400 384.400 166.800 384.400 L 169.200 384.400 169.200 383.200 C 169.200 382.133,169.333 382.000,170.400 382.000 C 171.467 382.000,171.600 381.867,171.600 380.800 C 171.600 379.733,171.733 379.600,172.800 379.600 C 173.986 379.600,174.000 379.575,174.000 377.427 C 174.000 375.353,174.050 375.247,175.100 375.127 C 175.957 375.028,176.227 374.762,176.324 373.924 C 176.420 373.093,176.693 372.820,177.524 372.724 C 178.356 372.628,178.628 372.356,178.724 371.524 C 178.820 370.693,179.093 370.420,179.924 370.324 C 180.936 370.207,181.007 370.064,181.120 367.900 L 181.240 365.600 200.000 365.600 L 218.760 365.600 218.880 367.900 C 218.993 370.064,219.064 370.207,220.076 370.324 C 220.907 370.420,221.180 370.693,221.276 371.524 C 221.372 372.356,221.644 372.628,222.476 372.724 C 223.307 372.820,223.580 373.093,223.676 373.924 C 223.773 374.762,224.043 375.028,224.900 375.127 C 225.950 375.247,226.000 375.353,226.000 377.427 C 226.000 379.575,226.014 379.600,227.200 379.600 C 228.267 379.600,228.400 379.733,228.400 380.800 C 228.400 381.867,228.533 382.000,229.600 382.000 C 230.667 382.000,230.800 382.133,230.800 383.200 C 230.800 384.267,230.933 384.400,232.000 384.400 C 233.067 384.400,233.200 384.533,233.200 385.600 L 233.200 386.800 235.600 386.800 L 238.000 386.800 238.000 388.000 C 238.000 389.067,238.133 389.200,239.200 389.200 C 240.267 389.200,240.400 389.333,240.400 390.400 C 240.400 391.586,240.425 391.600,242.573 391.600 C 244.647 391.600,244.753 391.650,244.873 392.700 C 244.993 393.741,245.123 393.806,247.300 393.920 C 249.553 394.037,249.600 394.064,249.600 395.220 C 249.600 396.396,249.609 396.400,252.000 396.400 L 254.400 396.400 254.400 397.600 L 254.400 398.800 259.200 398.800 L 264.000 398.800 264.000 400.004 L 264.000 401.209 280.500 401.104 L 297.000 401.000 297.127 399.900 L 297.253 398.800 301.827 398.800 L 306.400 398.800 306.400 397.600 L 306.400 396.400 308.800 396.400 L 311.200 396.400 311.200 395.200 L 311.200 394.000 313.600 394.000 L 316.000 394.000 316.000 392.800 L 316.000 391.600 318.400 391.600 L 320.800 391.600 320.800 390.400 C 320.800 389.333,320.933 389.200,322.000 389.200 C 323.067 389.200,323.200 389.067,323.200 388.000 C 323.200 386.933,323.333 386.800,324.400 386.800 C 325.467 386.800,325.600 386.667,325.600 385.600 C 325.600 384.533,325.733 384.400,326.800 384.400 C 327.867 384.400,328.000 384.267,328.000 383.200 C 328.000 382.187,328.156 382.000,329.000 382.000 C 329.844 382.000,330.000 381.813,330.000 380.800 C 330.000 379.733,330.133 379.600,331.200 379.600 C 332.267 379.600,332.400 379.467,332.400 378.400 C 332.400 377.333,332.533 377.200,333.600 377.200 C 334.613 377.200,334.800 377.044,334.800 376.200 C 334.800 375.356,334.987 375.200,336.000 375.200 C 337.067 375.200,337.200 375.067,337.200 374.000 C 337.200 372.933,337.333 372.800,338.400 372.800 L 339.600 372.800 339.600 370.400 L 339.600 368.000 340.800 368.000 L 342.000 368.000 342.000 365.600 L 342.000 363.200 343.200 363.200 L 344.400 363.200 344.400 360.800 L 344.400 358.400 345.600 358.400 L 346.800 358.400 346.800 354.800 L 346.800 351.200 348.000 351.200 L 349.200 351.200 349.200 345.427 L 349.200 339.653 350.300 339.527 L 351.400 339.400 351.400 331.200 L 351.400 323.000 350.300 322.873 L 349.200 322.747 349.200 316.973 L 349.200 311.200 348.000 311.200 L 346.800 311.200 346.800 307.600 L 346.800 304.000 345.600 304.000 L 344.400 304.000 344.400 301.600 C 344.400 299.209,344.396 299.200,343.220 299.200 C 342.064 299.200,342.037 299.153,341.920 296.900 C 341.806 294.723,341.741 294.593,340.700 294.473 C 339.650 294.353,339.600 294.247,339.600 292.173 C 339.600 290.025,339.586 290.000,338.400 290.000 C 337.333 290.000,337.200 289.867,337.200 288.800 C 337.200 287.733,337.067 287.600,336.000 287.600 C 334.933 287.600,334.800 287.467,334.800 286.400 C 334.800 285.333,334.667 285.200,333.600 285.200 C 332.533 285.200,332.400 285.067,332.400 284.000 C 332.400 282.933,332.267 282.800,331.200 282.800 C 330.133 282.800,330.000 282.667,330.000 281.600 C 330.000 280.595,329.841 280.400,329.027 280.400 C 328.262 280.400,328.026 280.164,327.927 279.300 C 327.828 278.443,327.562 278.173,326.724 278.076 C 325.893 277.980,325.620 277.707,325.524 276.876 C 325.428 276.044,325.156 275.772,324.324 275.676 C 323.493 275.580,323.220 275.307,323.124 274.476 C 323.028 273.644,322.756 273.372,321.924 273.276 C 321.093 273.180,320.820 272.907,320.724 272.076 C 320.608 271.065,320.462 270.993,318.325 270.881 C 316.185 270.769,316.042 270.697,315.925 269.681 C 315.807 268.664,315.665 268.593,313.525 268.481 C 311.385 268.369,311.242 268.297,311.125 267.281 C 311.007 266.263,310.867 266.193,308.700 266.080 C 306.558 265.968,306.400 265.893,306.400 264.980 L 306.400 264.000 301.800 264.000 L 297.200 264.000 297.200 262.800 L 297.200 261.600 200.000 261.600 L 102.800 261.600 102.800 262.800 M290.000 281.600 L 290.000 282.800 293.600 282.800 L 297.200 282.800 297.200 284.000 C 297.200 285.186,297.225 285.200,299.373 285.200 C 301.447 285.200,301.553 285.250,301.673 286.300 C 301.793 287.340,301.925 287.407,304.075 287.519 C 306.215 287.631,306.358 287.703,306.475 288.719 C 306.572 289.556,306.843 289.828,307.676 289.924 C 308.507 290.020,308.780 290.293,308.876 291.124 C 308.993 292.136,309.136 292.207,311.300 292.320 C 313.442 292.432,313.600 292.507,313.600 293.420 C 313.600 294.242,313.793 294.400,314.800 294.400 C 315.867 294.400,316.000 294.533,316.000 295.600 C 316.000 296.667,316.133 296.800,317.200 296.800 L 318.400 296.800 318.400 299.200 L 318.400 301.600 319.600 301.600 C 320.667 301.600,320.800 301.733,320.800 302.800 C 320.800 303.867,320.933 304.000,322.000 304.000 L 323.200 304.000 323.200 306.400 L 323.200 308.800 324.400 308.800 L 325.600 308.800 325.600 311.200 L 325.600 313.600 326.800 313.600 L 328.000 313.600 328.000 316.000 C 328.000 318.293,328.044 318.400,329.000 318.400 L 330.000 318.400 330.000 331.400 L 330.000 344.400 329.000 344.400 C 328.044 344.400,328.000 344.507,328.000 346.800 L 328.000 349.200 326.800 349.200 C 325.612 349.200,325.600 349.222,325.600 351.400 C 325.600 353.578,325.588 353.600,324.400 353.600 L 323.200 353.600 323.200 356.000 L 323.200 358.400 322.000 358.400 C 320.933 358.400,320.800 358.533,320.800 359.600 C 320.800 360.667,320.667 360.800,319.600 360.800 L 318.400 360.800 318.400 363.200 L 318.400 365.600 317.200 365.600 C 316.133 365.600,316.000 365.733,316.000 366.800 C 316.000 367.867,315.867 368.000,314.800 368.000 C 313.733 368.000,313.600 368.133,313.600 369.200 L 313.600 370.400 311.200 370.400 L 308.800 370.400 308.800 371.600 C 308.800 372.667,308.667 372.800,307.600 372.800 C 306.538 372.800,306.400 372.936,306.400 373.980 C 306.400 375.136,306.353 375.163,304.100 375.280 C 302.063 375.386,301.785 375.503,301.672 376.300 C 301.570 377.016,301.285 377.201,300.272 377.205 C 298.053 377.215,297.200 377.611,297.200 378.634 C 297.200 379.562,297.136 379.576,292.500 379.687 L 287.800 379.800 287.673 380.900 L 287.547 382.000 279.400 382.000 L 271.253 382.000 271.127 380.900 C 271.000 379.804,270.988 379.800,267.500 379.684 C 264.128 379.573,264.000 379.535,264.000 378.631 C 264.000 377.583,263.146 377.214,260.700 377.205 C 259.368 377.201,259.200 377.088,259.200 376.200 C 259.200 375.244,259.093 375.200,256.800 375.200 L 254.400 375.200 254.400 374.000 L 254.400 372.800 252.000 372.800 L 249.600 372.800 249.600 371.600 C 249.600 370.533,249.467 370.400,248.400 370.400 C 247.333 370.400,247.200 370.267,247.200 369.200 C 247.200 368.133,247.067 368.000,246.000 368.000 C 244.933 368.000,244.800 367.867,244.800 366.800 C 244.800 365.795,244.641 365.600,243.827 365.600 C 243.062 365.600,242.826 365.364,242.727 364.500 C 242.628 363.641,242.363 363.373,241.519 363.275 C 240.503 363.158,240.431 363.015,240.319 360.875 C 240.207 358.738,240.135 358.592,239.124 358.476 C 238.293 358.380,238.020 358.107,237.924 357.276 C 237.828 356.443,237.556 356.172,236.719 356.075 C 235.703 355.958,235.631 355.815,235.519 353.675 C 235.407 351.525,235.340 351.393,234.300 351.273 C 233.250 351.153,233.200 351.047,233.200 348.973 L 233.200 346.800 200.000 346.800 L 166.800 346.800 166.800 348.973 C 166.800 351.047,166.750 351.153,165.700 351.273 C 164.660 351.393,164.593 351.525,164.481 353.675 C 164.369 355.815,164.297 355.958,163.281 356.075 C 162.444 356.172,162.172 356.443,162.076 357.276 C 161.980 358.107,161.707 358.380,160.876 358.476 C 159.864 358.593,159.793 358.736,159.680 360.900 C 159.568 363.042,159.493 363.200,158.580 363.200 C 157.758 363.200,157.600 363.393,157.600 364.400 C 157.600 365.467,157.467 365.600,156.400 365.600 C 155.333 365.600,155.200 365.733,155.200 366.800 C 155.200 367.867,155.067 368.000,154.000 368.000 C 152.933 368.000,152.800 368.133,152.800 369.200 L 152.800 370.400 150.400 370.400 L 148.000 370.400 148.000 371.600 C 148.000 372.667,147.867 372.800,146.800 372.800 C 145.733 372.800,145.600 372.933,145.600 374.000 L 145.600 375.200 143.200 375.200 C 140.907 375.200,140.800 375.244,140.800 376.200 C 140.800 377.088,140.632 377.201,139.300 377.205 C 136.842 377.214,136.000 377.582,136.000 378.647 C 136.000 379.576,135.914 379.600,132.632 379.600 L 129.264 379.600 129.000 380.800 L 128.736 382.000 120.595 382.000 L 112.453 382.000 112.327 380.900 L 112.200 379.800 107.500 379.687 C 102.864 379.576,102.800 379.562,102.800 378.634 C 102.800 377.608,101.947 377.215,99.700 377.205 C 98.581 377.201,98.400 377.060,98.400 376.200 C 98.400 375.244,98.293 375.200,96.000 375.200 L 93.600 375.200 93.600 374.000 C 93.600 372.933,93.467 372.800,92.400 372.800 C 91.333 372.800,91.200 372.667,91.200 371.600 L 91.200 370.400 88.800 370.400 L 86.400 370.400 86.400 369.200 C 86.400 368.133,86.267 368.000,85.200 368.000 C 84.133 368.000,84.000 367.867,84.000 366.800 C 84.000 365.733,83.867 365.600,82.800 365.600 L 81.600 365.600 81.600 363.200 L 81.600 360.800 80.400 360.800 C 79.333 360.800,79.200 360.667,79.200 359.600 C 79.200 358.533,79.067 358.400,78.000 358.400 L 76.800 358.400 76.800 356.000 L 76.800 353.600 75.600 353.600 C 74.412 353.600,74.400 353.578,74.400 351.400 C 74.400 349.222,74.388 349.200,73.200 349.200 L 72.000 349.200 72.000 346.800 C 72.000 344.507,71.956 344.400,71.000 344.400 L 70.000 344.400 70.000 331.400 L 70.000 318.400 71.000 318.400 C 71.956 318.400,72.000 318.293,72.000 316.000 L 72.000 313.600 73.200 313.600 L 74.400 313.600 74.400 310.000 L 74.400 306.400 75.600 306.400 C 76.667 306.400,76.800 306.267,76.800 305.200 C 76.800 304.133,76.933 304.000,78.000 304.000 C 79.067 304.000,79.200 303.867,79.200 302.800 C 79.200 301.733,79.333 301.600,80.400 301.600 L 81.600 301.600 81.600 299.200 L 81.600 296.800 82.800 296.800 C 83.867 296.800,84.000 296.667,84.000 295.600 C 84.000 294.533,84.133 294.400,85.200 294.400 C 86.207 294.400,86.400 294.242,86.400 293.420 C 86.400 292.507,86.558 292.432,88.700 292.320 C 90.864 292.207,91.007 292.136,91.124 291.124 C 91.220 290.293,91.493 290.020,92.324 289.924 C 93.157 289.828,93.428 289.556,93.525 288.719 C 93.642 287.703,93.785 287.631,95.925 287.519 C 98.075 287.407,98.207 287.340,98.327 286.300 C 98.447 285.250,98.553 285.200,100.627 285.200 C 102.775 285.200,102.800 285.186,102.800 284.000 L 102.800 282.800 106.400 282.800 L 110.000 282.800 110.000 281.600 L 110.000 280.400 200.000 280.400 L 290.000 280.400 290.000 281.600 M112.400 293.350 C 112.400 294.086,112.129 294.354,111.200 294.540 L 110.000 294.780 110.000 307.790 L 110.000 320.800 99.400 320.800 L 88.800 320.800 88.800 321.773 C 88.800 322.538,88.564 322.774,87.700 322.873 L 86.600 323.000 86.491 330.100 L 86.382 337.200 87.591 337.200 C 88.668 337.200,88.800 337.331,88.800 338.400 L 88.800 339.600 99.400 339.600 L 110.000 339.600 110.000 351.400 L 110.000 363.200 111.200 363.200 C 112.267 363.200,112.400 363.333,112.400 364.400 L 112.400 365.600 119.600 365.600 L 126.800 365.600 126.800 364.400 C 126.800 363.387,126.956 363.200,127.800 363.200 L 128.800 363.200 128.800 351.400 L 128.800 339.600 138.400 339.600 L 148.000 339.600 148.000 338.400 L 148.000 337.200 150.400 337.200 L 152.800 337.200 152.800 329.000 L 152.800 320.800 150.400 320.800 L 148.000 320.800 148.000 319.600 L 148.000 318.400 145.600 318.400 L 143.200 318.400 143.200 319.600 L 143.200 320.800 136.005 320.800 L 128.811 320.800 128.705 307.700 L 128.600 294.600 127.700 294.472 C 127.049 294.380,126.800 294.076,126.800 293.372 L 126.800 292.400 119.600 292.400 L 112.400 292.400 112.400 293.350 M245.067 316.267 C 244.920 316.413,244.800 317.493,244.800 318.667 C 244.800 320.676,244.742 320.800,243.800 320.800 L 242.800 320.800 242.800 325.400 L 242.800 330.000 243.773 330.000 C 244.538 330.000,244.774 330.236,244.873 331.100 C 244.973 331.964,245.236 332.227,246.100 332.327 C 247.021 332.433,247.200 332.644,247.200 333.627 L 247.200 334.800 276.800 334.800 L 306.400 334.800 306.400 333.600 C 306.400 332.533,306.533 332.400,307.600 332.400 C 308.667 332.400,308.800 332.267,308.800 331.200 C 308.800 330.133,308.933 330.000,310.000 330.000 L 311.200 330.000 311.200 324.200 L 311.200 318.400 310.000 318.400 C 308.933 318.400,308.800 318.267,308.800 317.200 L 308.800 316.000 277.067 316.000 C 259.613 316.000,245.213 316.120,245.067 316.267 M382.400 599.800 L 382.400 652.000 200.000 652.000 L 17.600 652.000 17.600 599.800 L 17.600 547.600 200.000 547.600 L 382.400 547.600 382.400 599.800 M148.000 590.400 L 148.000 592.800 146.800 592.800 L 145.600 592.800 145.600 597.400 L 145.600 602.000 146.800 602.000 C 147.867 602.000,148.000 602.133,148.000 603.200 C 148.000 604.267,148.133 604.400,149.200 604.400 C 150.267 604.400,150.400 604.533,150.400 605.600 L 150.400 606.800 200.000 606.800 L 249.600 606.800 249.600 605.600 C 249.600 604.533,249.733 604.400,250.800 604.400 C 251.867 604.400,252.000 604.267,252.000 603.200 C 252.000 602.133,252.133 602.000,253.200 602.000 L 254.400 602.000 254.400 597.400 L 254.400 592.800 253.200 592.800 L 252.000 592.800 252.000 590.400 L 252.000 588.000 200.000 588.000 L 148.000 588.000 148.000 590.400 " stroke="none" fill="#04ac44" fill-rule="evenodd"></path><path id="path1" d="" stroke="none" fill="#08ac44" fill-rule="evenodd"></path><path id="path2" d="" stroke="none" fill="#08ac44" fill-rule="evenodd"></path><path id="path3" d="" stroke="none" fill="#08ac44" fill-rule="evenodd"></path><path id="path4" d="" stroke="none" fill="#08ac44" fill-rule="evenodd"></path></g></svg>