<svg id="Warstwa_1" data-name="Warstwa 1" xmlns="http://www.w3.org/2000/svg" viewBox="0 0 27.1 27.12"><defs><style>.cls-1,.cls-2,.cls-3{fill:none;}.cls-2,.cls-3{stroke:#02ac46;stroke-width:0.5px;}.cls-2{stroke-linecap:round;stroke-linejoin:round;}.cls-3{stroke-miterlimit:10;}</style></defs><rect id="backgroundrect" class="cls-1" x="0.05" width="27" height="27"/><path id="svg_2" data-name="svg 2" class="cls-2" d="M26.8,22.57a4.27,4.27,0,0,1-4.3,4.3H4.5a4.27,4.27,0,0,1-4.3-4.3v-18A4.27,4.27,0,0,1,4.5.27h18a4.27,4.27,0,0,1,4.3,4.3Z" transform="translate(0.05 0)"/><g id="layer1"><g id="g1894"><path id="path8615" class="cls-3" d="M13.29,3.4C8.2,3.4,8.51,5.58,8.51,5.58V7.87h4.88V8.6H6.64s-3.22-.42-3.22,4.78,2.8,5,2.8,5H7.89V16a2.66,2.66,0,0,1,2.8-2.81h4.78a2.62,2.62,0,0,0,2.7-2.6V6.21S18.59,3.4,13.29,3.4Zm-2.7,1.46a.81.81,0,0,1,.83.83.9.9,0,0,1-.83.83.82.82,0,0,1-.83-.83A.88.88,0,0,1,10.59,4.86Z" transform="translate(0.05 0)"/><path id="path8620" class="cls-3" d="M13.61,23.73c5.09,0,4.78-2.18,4.78-2.18V19.26H13.5v-.72h6.86s3.22.41,3.22-4.78-2.8-5-2.8-5H19.11v2.39a2.65,2.65,0,0,1-2.8,2.8H11.53a2.62,2.62,0,0,0-2.7,2.6v4.37S8.31,23.73,13.61,23.73Zm2.7-1.56a.83.83,0,1,1,.83-.83C17.24,21.86,16.83,22.17,16.31,22.17Z" transform="translate(0.05 0)"/></g></g></svg>
